<svg xmlns="http://www.w3.org/2000/svg" xmlns:xlink="http://www.w3.org/1999/xlink" viewBox="0 0 70 70">
  <defs>
    <path id="icon-a" d="M4,0 C36.4160122,0 58.0836068,0 65,0 C69,0 70,1 70,5 C70,43.0488877 70,62.4235458 70,65 C70,69 69,70 65,70 C61,70 9,70 4,70 C1,70 0,69 0,65 C0,62.4676575 0,41.8005206 0,5 C0,1 1,0 4,0 Z"/>
    <linearGradient id="icon-c" x1="100%" x2="0%" y1="0%" y2="100%">
      <stop offset="0%" stop-color="#00BFFF"/>
      <stop offset="100%" stop-color="#1E90FF"/>
    </linearGradient>
    <path id="icon-d" d="M11,25 L12.5,23.4 C13.4,22.5 15,22.8 15,22.8 L19.5,23.5 L21.8,21.2 C23,20 24.1,21.8 23.6,22.4 L22.4,23.7 L27.2,24.6 L28.8,22.7 C30.6,20.7 31.9,22.5 31.1,23.6 L30,25 L37.3,26 C43.5,20 46,17.5 47.6,19 C49.2,20.5 46.3,23.5 40.6,29.3 L41.6,36.8 L43.1,35.5 C44,34.8 45.6,36 44,37.6 L42,39.6 L42.9,44.5 L44.2,43.5 C45.3,42.6 46.7,43.8 45.1,45.5 L43.1,47.5 C43,47.6 43.8,51.8 43.8,51.8 C44.2,53.8 43,54.6 43,54.6 L41.6,55.8 L36.1,40.4 C35.6,39.1 34.5,37.6 32.6,37.8 C31.6,37.9 29.1,39.7 28.7,40.1 L22.8,45.8 C22.7,45.9 23.8,53.2 23.8,53.2 C23.8,53.4 21.9,55.8 21.9,55.8 L18.2,49.2 L16.4,50.1 L17.5,48.4 L11,44.6 L13.5,42.7 C14.7,43 21,43.7 21.1,43.6 C21.1,43.6 26.2,38.5 26.5,38.2 C28.2,36.4 28.7,35.7 29,34.8 C29.3,33.9 28.8,32.6 26.2,31 C22.5,28.7 11,25 11,25 Z"/>
  </defs>
  <g fill="none" fill-rule="evenodd">
    <mask id="icon-b" fill="#fff">
      <use xlink:href="#icon-a"/>
    </mask>
    <g mask="url(#icon-b)">
      <rect width="70" height="70" fill="url(#icon-c)"/>
      <path fill="#FFF" fill-opacity=".383" d="M4,1.8 L65,1.8 C67.6666667,1.8 69.3333333,1.13333333 70,-0.2 C70,2.46666667 70,3.46666667 70,2.8 L0,2.8 C0,3.46666667 0,2.46666667 0,-0.2 C0.666666667,1.13333333 2,1.8 4,1.8 Z" transform="matrix(1 0 0 -1 0 2.8)"/>
      <path fill="#000" fill-opacity=".3" d="M39.8461538,54 L4,54 C2,54 0,53.8544474 0,49.9245283 L0,25.9563572 L19.6596494,1.0710105 L47,0 L49.9211999,35.2849068 L39.8461538,54 Z" opacity=".324" transform="translate(0 15)"/>
      <path fill="#000" fill-opacity=".383" d="M4,4 L65,4 C67.6666667,4 69.3333333,3 70,1 C70,3.66666667 70,5 70,5 L0,5 C0,5 0,3.66666667 0,1 C0.666666667,3 2,4 4,4 Z" transform="translate(0 65)"/>
      <use fill="#000" fill-rule="nonzero" opacity=".3" xlink:href="#icon-d" transform="translate(0 2)"/>
      <use fill="#FFF" fill-rule="nonzero" xlink:href="#icon-d"/>
    </g>
  </g>
</svg>
